<svg xmlns="http://www.w3.org/2000/svg" viewBox="0 0 300 300" width="300" height="300" fill="none">
  <g stroke="white" stroke-linecap="round" stroke-linejoin="round">
    <path stroke-width="1.6" d="M152 40 C210 44 252 82 260 136 C268 194 238 246 180 262 C124 278 68 252 46 198 C24 144 44 86 92 58 C116 44 132 39 152 40Z"/>
    <path stroke-width="1.4" d="M151 58 C201 60 238 94 244 140 C252 188 228 230 182 244 C132 258 84 238 62 194 C40 150 54 102 96 76 C118 62 134 56 151 58Z"/>
    <path stroke-width="1.3" d="M150 74 C194 78 222 104 228 142 C236 184 214 218 176 232 C132 246 96 226 74 190 C54 154 66 114 102 90 C118 80 132 74 150 74Z"/>
    <path stroke-width="1.1" d="M150 92 C184 94 210 116 214 146 C220 178 204 208 174 220 C138 232 108 216 90 188 C72 158 80 124 108 106 C124 96 136 92 150 92Z"/>
    <path stroke-width="1" d="M149 110 C176 112 196 126 200 150 C204 174 192 196 170 206 C142 218 118 206 104 184 C90 162 96 136 116 120 C126 112 136 108 149 110Z"/>
    <path stroke-width="0.9" d="M149 128 C166 130 182 140 186 154 C190 172 182 188 166 196 C144 204 126 198 116 180 C106 164 110 146 124 136 C132 130 140 126 149 128Z"/>
    <path stroke-width="0.9" d="M150 42 C148 92 146 188 146 256"/>
    <path stroke-width="0.8" d="M92 60 C108 100 118 148 124 214"/>
    <path stroke-width="0.8" d="M214 78 C194 118 184 154 176 222"/>
    <path stroke-width="0.8" d="M58 154 C94 158 128 164 198 176"/>
    <path stroke-width="0.8" d="M92 226 C118 208 148 188 194 150"/>
    <path stroke-width="0.8" d="M220 196 C196 182 176 172 138 162"/>
  </g>
</svg>
