<svg xmlns="http://www.w3.org/2000/svg" viewBox="0 0 300 300" width="300" height="300" fill="none">
  <g stroke="white" stroke-linecap="round" stroke-linejoin="round">
    <path stroke-width="1.5" d="M52 84 C74 60 118 56 140 76 C156 92 156 124 136 142 C114 162 74 162 54 138 C40 120 38 98 52 84Z"/>
    <path stroke-width="1.3" d="M146 58 C176 44 214 54 232 82 C246 106 238 142 212 156 C186 172 150 164 136 136 C122 108 126 70 146 58Z"/>
    <path stroke-width="1.4" d="M60 168 C84 148 126 150 146 172 C164 194 160 228 134 246 C104 266 66 258 48 232 C34 212 38 184 60 168Z"/>
    <path stroke-width="1.2" d="M164 170 C190 152 228 156 248 180 C264 202 258 234 234 252 C208 270 172 266 154 242 C138 220 142 188 164 170Z"/>
    <path stroke-width="0.8" d="M88 96 C102 108 114 120 120 138"/>
    <path stroke-width="0.8" d="M176 82 C188 96 194 112 194 132"/>
    <path stroke-width="0.8" d="M84 204 C98 212 114 220 128 230"/>
    <path stroke-width="0.8" d="M190 198 C204 206 214 218 220 234"/>
  </g>
</svg>
